<svg xmlns="http://www.w3.org/2000/svg" viewBox="0 0 100 100">
  <rect width="100" height="100" rx="24" fill="#12233B"/>
  <g transform="translate(15,14) scale(0.9)">
    <g fill="#FFFFFF">
      <g transform="translate(8.8700,71.7100) scale(0.089960,-0.089960)"><path d="M398 -9Q291 -9 215.0 35.0Q139 79 98.5 160.5Q58 242 58 353Q58 436 81.0 502.5Q104 569 147.5 616.5Q191 664 254.5 689.0Q318 714 398 714Q457 714 511.5 698.0Q566 682 606 652Q623 641 628.5 625.5Q634 610 630.5 596.0Q627 582 617.0 572.5Q607 563 591.5 562.0Q576 561 558 573Q525 598 485.0 610.0Q445 622 401 622Q325 622 273.0 590.5Q221 559 194.0 499.0Q167 439 167 353Q167 267 194.0 206.5Q221 146 273.0 114.5Q325 83 401 83Q445 83 485.5 95.5Q526 108 562 133Q580 144 594.5 143.0Q609 142 619.0 133.0Q629 124 632.5 110.5Q636 97 631.5 82.5Q627 68 612 58Q571 25 515.0 8.0Q459 -9 398 -9Z"/></g>
    </g>
    <path d="M56.77 48.23 A13 13 0 1 1 56.77 31.51" fill="none" stroke="#5DCAA5" stroke-width="6" stroke-linecap="round"/>
  </g>
</svg>
